<svg width="133" height="30" viewBox="0 0 133 30" fill="none" xmlns="http://www.w3.org/2000/svg">
<path d="M55.108 5.98V18.216C55.108 20.8667 54.408 22.9013 53.008 24.32C51.6267 25.7387 49.6387 26.448 47.044 26.448C45.476 26.448 44.104 26.1587 42.928 25.58C41.7707 24.9827 40.856 24.1427 40.184 23.06C39.512 21.9587 39.12 20.652 39.008 19.14L42.76 18.692C42.9093 20.1293 43.348 21.2307 44.076 21.996C44.804 22.7427 45.7933 23.116 47.044 23.116C48.4253 23.116 49.48 22.696 50.208 21.856C50.9547 21.016 51.328 19.8027 51.328 18.216V5.98H55.108ZM65.2379 26.448C63.8379 26.448 62.5872 26.1307 61.4859 25.496C60.3845 24.8613 59.5165 23.9933 58.8819 22.892C58.2659 21.7907 57.9579 20.5307 57.9579 19.112C57.9579 17.6933 58.2659 16.4333 58.8819 15.332C59.5165 14.2307 60.3845 13.3627 61.4859 12.728C62.5872 12.0933 63.8379 11.776 65.2379 11.776C66.6565 11.776 67.9072 12.0933 68.9899 12.728C70.0912 13.3627 70.9499 14.2307 71.5659 15.332C72.2005 16.4333 72.5179 17.6933 72.5179 19.112C72.5179 20.5307 72.2005 21.7907 71.5659 22.892C70.9499 23.9933 70.0912 24.8613 68.9899 25.496C67.9072 26.1307 66.6565 26.448 65.2379 26.448ZM65.2379 24.628C66.2459 24.628 67.1325 24.3947 67.8979 23.928C68.6632 23.4613 69.2605 22.8173 69.6899 21.996C70.1192 21.156 70.3339 20.1947 70.3339 19.112C70.3339 18.0293 70.1192 17.0773 69.6899 16.256C69.2605 15.416 68.6632 14.7627 67.8979 14.296C67.1325 13.8293 66.2459 13.596 65.2379 13.596C64.2299 13.596 63.3432 13.8293 62.5779 14.296C61.8125 14.7627 61.2152 15.416 60.7859 16.256C60.3565 17.0773 60.1419 18.0293 60.1419 19.112C60.1419 20.1947 60.3565 21.156 60.7859 21.996C61.2152 22.8173 61.8125 23.4613 62.5779 23.928C63.3432 24.3947 64.2299 24.628 65.2379 24.628ZM77.5651 26H75.5211V5.84H77.5931V16.396H77.0611C77.2291 15.4813 77.5931 14.6787 78.1531 13.988C78.7318 13.2973 79.4411 12.756 80.2811 12.364C81.1398 11.972 82.0638 11.776 83.0531 11.776C84.3971 11.776 85.5918 12.1027 86.6371 12.756C87.6824 13.3907 88.4944 14.2587 89.0731 15.36C89.6704 16.4613 89.9691 17.712 89.9691 19.112C89.9691 20.5307 89.6611 21.7907 89.0451 22.892C88.4478 23.9933 87.6078 24.8613 86.5251 25.496C85.4611 26.1307 84.2384 26.448 82.8571 26.448C81.6064 26.448 80.5051 26.196 79.5531 25.692C78.6198 25.1693 77.9104 24.4693 77.4251 23.592C76.9584 22.696 76.7904 21.6973 76.9211 20.596L77.3131 20.036C77.3878 20.9133 77.6678 21.7067 78.1531 22.416C78.6384 23.1067 79.2731 23.648 80.0571 24.04C80.8411 24.432 81.6998 24.628 82.6331 24.628C83.6598 24.628 84.5558 24.3947 85.3211 23.928C86.0864 23.4427 86.6838 22.7893 87.1131 21.968C87.5611 21.128 87.7851 20.176 87.7851 19.112C87.7851 18.048 87.5704 17.1053 87.1411 16.284C86.7304 15.444 86.1518 14.7907 85.4051 14.324C84.6584 13.8387 83.7904 13.596 82.8011 13.596C81.7931 13.596 80.8971 13.848 80.1131 14.352C79.3291 14.856 78.7131 15.556 78.2651 16.452C77.8171 17.3293 77.5931 18.356 77.5931 19.532V22.22L77.5651 22.248V26ZM104.608 22.08L106.064 23.452C105.336 24.3853 104.459 25.1227 103.432 25.664C102.405 26.1867 101.229 26.448 99.9038 26.448C98.4478 26.448 97.1412 26.1307 95.9838 25.496C94.8452 24.8613 93.9492 23.9933 93.2958 22.892C92.6425 21.7907 92.3158 20.5307 92.3158 19.112C92.3158 17.6933 92.6238 16.4333 93.2398 15.332C93.8745 14.2307 94.7425 13.3627 95.8438 12.728C96.9452 12.0933 98.1958 11.776 99.5958 11.776C100.94 11.776 102.125 12.0933 103.152 12.728C104.197 13.344 105.019 14.1933 105.616 15.276C106.213 16.3587 106.512 17.6093 106.512 19.028V19.196H104.384V19.028C104.384 17.9453 104.169 17.0027 103.74 16.2C103.329 15.3787 102.76 14.744 102.032 14.296C101.323 13.8293 100.511 13.596 99.5958 13.596C98.5878 13.596 97.7012 13.8293 96.9358 14.296C96.1705 14.7627 95.5732 15.4067 95.1438 16.228C94.7145 17.0493 94.4998 18.0013 94.4998 19.084C94.4998 20.1667 94.7332 21.128 95.1998 21.968C95.6665 22.808 96.3012 23.4613 97.1038 23.928C97.9252 24.3947 98.8678 24.628 99.9318 24.628C101.873 24.628 103.432 23.7787 104.608 22.08ZM106.512 19.84H94.0518V18.132H106.064L106.512 19.028V19.84ZM108.32 23.872L109.776 22.472C110.43 23.1627 111.167 23.704 111.988 24.096C112.81 24.488 113.734 24.684 114.76 24.684C115.88 24.684 116.795 24.4507 117.504 23.984C118.232 23.4987 118.596 22.8827 118.596 22.136C118.596 21.4827 118.288 20.9787 117.672 20.624C117.075 20.2507 116.058 19.9613 114.62 19.756C112.53 19.4573 111.055 19.0093 110.196 18.412C109.356 17.796 108.936 16.9747 108.936 15.948C108.936 15.108 109.179 14.38 109.664 13.764C110.15 13.1293 110.822 12.644 111.68 12.308C112.539 11.9533 113.519 11.776 114.62 11.776C115.852 11.776 116.954 12 117.924 12.448C118.895 12.896 119.754 13.5307 120.5 14.352L119.044 15.752C118.484 15.0613 117.84 14.52 117.112 14.128C116.384 13.736 115.554 13.54 114.62 13.54C113.594 13.54 112.744 13.7547 112.072 14.184C111.4 14.6133 111.064 15.1827 111.064 15.892C111.064 16.4147 111.344 16.8347 111.904 17.152C112.483 17.4507 113.454 17.6933 114.816 17.88C116.982 18.1787 118.503 18.664 119.38 19.336C120.276 19.9893 120.724 20.904 120.724 22.08C120.724 22.9387 120.463 23.704 119.94 24.376C119.436 25.0293 118.736 25.5427 117.84 25.916C116.944 26.2707 115.918 26.448 114.76 26.448C113.416 26.448 112.212 26.224 111.148 25.776C110.103 25.3093 109.16 24.6747 108.32 23.872ZM131.635 26H128.387C127.416 26 126.66 25.7387 126.119 25.216C125.596 24.6747 125.335 23.9187 125.335 22.948V8.192H127.407V22.78C127.407 23.228 127.528 23.5827 127.771 23.844C128.014 24.0867 128.368 24.208 128.835 24.208H131.635V26ZM131.439 13.988H122.479V12.224H131.439V13.988Z" fill="white"/>
<g clip-path="url(#clip0_685_155)">
<path d="M24.9364 10C24.9746 10.4125 25.0001 10.8276 25.0001 11.2499C25.0001 18.8316 18.8317 25 11.25 25C10.8278 25 10.4126 24.9745 10.0001 24.9363V29.9999H30V10H24.9364Z" fill="#8DCF9B"/>
<path d="M11.25 0C5.03665 0 0 5.03665 0 11.25C0 16.1464 3.13352 20.3002 7.5 21.8457V7.5H21.8457C20.3002 3.13352 16.1464 0 11.25 0Z" fill="#8DCF9B"/>
<path d="M22.4269 10H10.0001V22.4256C10.4104 22.4706 10.8278 22.4987 11.25 22.4987C17.4634 22.4987 22.5 17.4632 22.5 11.2498C22.5 10.8276 22.4719 10.4114 22.4269 10Z" fill="#8DCF9B"/>
</g>
<defs>
<clipPath id="clip0_685_155">
<rect width="30" height="30" fill="white"/>
</clipPath>
</defs>
</svg>
