<svg width="134" height="30" viewBox="0 0 134 30" fill="none" xmlns="http://www.w3.org/2000/svg">
<path d="M55.864 5.98V18.104C55.864 20.8107 55.136 22.8827 53.68 24.32C52.224 25.7387 50.124 26.448 47.38 26.448C45.7373 26.448 44.2907 26.1307 43.04 25.496C41.808 24.8613 40.828 23.9653 40.1 22.808C39.3907 21.632 38.9987 20.2507 38.924 18.664L43.74 18.104C43.852 19.448 44.216 20.4747 44.832 21.184C45.4667 21.8747 46.316 22.22 47.38 22.22C48.5747 22.22 49.48 21.8747 50.096 21.184C50.7307 20.4747 51.048 19.448 51.048 18.104V5.98H55.864ZM65.8121 26.448C64.4121 26.448 63.1614 26.1307 62.0601 25.496C60.9588 24.8613 60.0908 23.9933 59.4561 22.892C58.8401 21.7907 58.5321 20.5307 58.5321 19.112C58.5321 17.6933 58.8401 16.4333 59.4561 15.332C60.0908 14.2307 60.9588 13.3627 62.0601 12.728C63.1614 12.0933 64.4121 11.776 65.8121 11.776C67.2308 11.776 68.4814 12.0933 69.5641 12.728C70.6654 13.3627 71.5241 14.2307 72.1401 15.332C72.7748 16.4333 73.0921 17.6933 73.0921 19.112C73.0921 20.5307 72.7748 21.7907 72.1401 22.892C71.5241 23.9933 70.6654 24.8613 69.5641 25.496C68.4814 26.1307 67.2308 26.448 65.8121 26.448ZM65.8121 24.628C66.8201 24.628 67.7068 24.3947 68.4721 23.928C69.2374 23.4613 69.8348 22.8173 70.2641 21.996C70.6934 21.156 70.9081 20.1947 70.9081 19.112C70.9081 18.0293 70.6934 17.0773 70.2641 16.256C69.8348 15.416 69.2374 14.7627 68.4721 14.296C67.7068 13.8293 66.8201 13.596 65.8121 13.596C64.8041 13.596 63.9174 13.8293 63.1521 14.296C62.3868 14.7627 61.7894 15.416 61.3601 16.256C60.9308 17.0773 60.7161 18.0293 60.7161 19.112C60.7161 20.1947 60.9308 21.156 61.3601 21.996C61.7894 22.8173 62.3868 23.4613 63.1521 23.928C63.9174 24.3947 64.8041 24.628 65.8121 24.628ZM78.1393 26H76.0953V5.84H78.1673V16.396H77.6353C77.8033 15.4813 78.1673 14.6787 78.7273 13.988C79.306 13.2973 80.0153 12.756 80.8553 12.364C81.714 11.972 82.638 11.776 83.6273 11.776C84.9713 11.776 86.166 12.1027 87.2113 12.756C88.2566 13.3907 89.0686 14.2587 89.6473 15.36C90.2446 16.4613 90.5433 17.712 90.5433 19.112C90.5433 20.5307 90.2353 21.7907 89.6193 22.892C89.022 23.9933 88.182 24.8613 87.0993 25.496C86.0353 26.1307 84.8126 26.448 83.4313 26.448C82.1806 26.448 81.0793 26.196 80.1273 25.692C79.194 25.1693 78.4846 24.4693 77.9993 23.592C77.5326 22.696 77.3646 21.6973 77.4953 20.596L77.8873 20.036C77.962 20.9133 78.242 21.7067 78.7273 22.416C79.2126 23.1067 79.8473 23.648 80.6313 24.04C81.4153 24.432 82.274 24.628 83.2073 24.628C84.234 24.628 85.13 24.3947 85.8953 23.928C86.6606 23.4427 87.258 22.7893 87.6873 21.968C88.1353 21.128 88.3593 20.176 88.3593 19.112C88.3593 18.048 88.1446 17.1053 87.7153 16.284C87.3046 15.444 86.726 14.7907 85.9793 14.324C85.2326 13.8387 84.3646 13.596 83.3753 13.596C82.3673 13.596 81.4713 13.848 80.6873 14.352C79.9033 14.856 79.2873 15.556 78.8393 16.452C78.3913 17.3293 78.1673 18.356 78.1673 19.532V22.22L78.1393 22.248V26ZM105.182 22.08L106.638 23.452C105.91 24.3853 105.033 25.1227 104.006 25.664C102.979 26.1867 101.803 26.448 100.478 26.448C99.0221 26.448 97.7154 26.1307 96.5581 25.496C95.4194 24.8613 94.5234 23.9933 93.8701 22.892C93.2167 21.7907 92.8901 20.5307 92.8901 19.112C92.8901 17.6933 93.1981 16.4333 93.8141 15.332C94.4487 14.2307 95.3167 13.3627 96.4181 12.728C97.5194 12.0933 98.7701 11.776 100.17 11.776C101.514 11.776 102.699 12.0933 103.726 12.728C104.771 13.344 105.593 14.1933 106.19 15.276C106.787 16.3587 107.086 17.6093 107.086 19.028V19.196H104.958V19.028C104.958 17.9453 104.743 17.0027 104.314 16.2C103.903 15.3787 103.334 14.744 102.606 14.296C101.897 13.8293 101.085 13.596 100.17 13.596C99.1621 13.596 98.2754 13.8293 97.5101 14.296C96.7447 14.7627 96.1474 15.4067 95.7181 16.228C95.2887 17.0493 95.0741 18.0013 95.0741 19.084C95.0741 20.1667 95.3074 21.128 95.7741 21.968C96.2407 22.808 96.8754 23.4613 97.6781 23.928C98.4994 24.3947 99.4421 24.628 100.506 24.628C102.447 24.628 104.006 23.7787 105.182 22.08ZM107.086 19.84H94.6261V18.132H106.638L107.086 19.028V19.84ZM108.894 23.872L110.35 22.472C111.004 23.1627 111.741 23.704 112.562 24.096C113.384 24.488 114.308 24.684 115.334 24.684C116.454 24.684 117.369 24.4507 118.078 23.984C118.806 23.4987 119.17 22.8827 119.17 22.136C119.17 21.4827 118.862 20.9787 118.246 20.624C117.649 20.2507 116.632 19.9613 115.194 19.756C113.104 19.4573 111.629 19.0093 110.77 18.412C109.93 17.796 109.51 16.9747 109.51 15.948C109.51 15.108 109.753 14.38 110.238 13.764C110.724 13.1293 111.396 12.644 112.254 12.308C113.113 11.9533 114.093 11.776 115.194 11.776C116.426 11.776 117.528 12 118.498 12.448C119.469 12.896 120.328 13.5307 121.074 14.352L119.618 15.752C119.058 15.0613 118.414 14.52 117.686 14.128C116.958 13.736 116.128 13.54 115.194 13.54C114.168 13.54 113.318 13.7547 112.646 14.184C111.974 14.6133 111.638 15.1827 111.638 15.892C111.638 16.4147 111.918 16.8347 112.478 17.152C113.057 17.4507 114.028 17.6933 115.39 17.88C117.556 18.1787 119.077 18.664 119.954 19.336C120.85 19.9893 121.298 20.904 121.298 22.08C121.298 22.9387 121.037 23.704 120.514 24.376C120.01 25.0293 119.31 25.5427 118.414 25.916C117.518 26.2707 116.492 26.448 115.334 26.448C113.99 26.448 112.786 26.224 111.722 25.776C110.677 25.3093 109.734 24.6747 108.894 23.872ZM132.209 26H128.961C127.991 26 127.235 25.7387 126.693 25.216C126.171 24.6747 125.909 23.9187 125.909 22.948V8.192H127.981V22.78C127.981 23.228 128.103 23.5827 128.345 23.844C128.588 24.0867 128.943 24.208 129.409 24.208H132.209V26ZM132.013 13.988H123.053V12.224H132.013V13.988Z" fill="#1C2E3D"/>
<g clip-path="url(#clip0_685_167)">
<path d="M24.9364 10C24.9746 10.4125 25.0001 10.8276 25.0001 11.2499C25.0001 18.8316 18.8317 25 11.25 25C10.8278 25 10.4126 24.9745 10.0001 24.9363V29.9999H30V10H24.9364Z" fill="#00A264"/>
<path d="M11.25 0C5.03665 0 0 5.03665 0 11.25C0 16.1464 3.13352 20.3002 7.5 21.8457V7.5H21.8457C20.3002 3.13352 16.1464 0 11.25 0Z" fill="#00A264"/>
<path d="M22.4269 10H10.0001V22.4256C10.4104 22.4706 10.8278 22.4987 11.25 22.4987C17.4634 22.4987 22.5 17.4632 22.5 11.2498C22.5 10.8276 22.4719 10.4114 22.4269 10Z" fill="#00A264"/>
</g>
<defs>
<clipPath id="clip0_685_167">
<rect width="30" height="30" fill="white"/>
</clipPath>
</defs>
</svg>
